<mxfile host="app.diagrams.net" agent="Mozilla/5.0 (Windows NT 10.0; Win64; x64; rv:128.0) Gecko/20100101 Firefox/128.0" version="28.1.1">
  <diagram name="Page-1" id="c1k9xSP03Svk2DgoVO_R">
    <mxGraphModel dx="1853" dy="734" grid="1" gridSize="10" guides="1" tooltips="1" connect="1" arrows="1" fold="1" page="1" pageScale="1" pageWidth="850" pageHeight="1100" math="0" shadow="0">
      <root>
        <mxCell id="0" />
        <mxCell id="1" parent="0" />
        <mxCell id="HvRxfJUMSGr-kj_1jJm4-1" value="&lt;div&gt;&lt;font style=&quot;font-size: 18px;&quot;&gt;Given an array of integers arr and an integer k, create a boolean function that checks if there exists two elements in arr such &lt;font&gt;that we get k when we add them together.&lt;/font&gt;&lt;br&gt;&lt;/font&gt;&lt;/div&gt;" style="text;html=1;align=left;verticalAlign=middle;whiteSpace=wrap;rounded=0;fontSize=14;" vertex="1" parent="1">
          <mxGeometry x="40" y="50" width="800" height="70" as="geometry" />
        </mxCell>
        <mxCell id="HvRxfJUMSGr-kj_1jJm4-2" value="&lt;div&gt;&lt;b&gt;Solution 1:&lt;/b&gt;&lt;/div&gt;&lt;div&gt;&lt;br&gt;&lt;/div&gt;&lt;div&gt;We put n = length of arr&lt;/div&gt;&lt;div&gt;&lt;br&gt;&lt;/div&gt;&lt;div&gt;&lt;font&gt;&lt;strong style=&quot;box-sizing: border-box; margin: 0px; padding: 0px; color: oklch(0.2974 0.0362 281.74); font-family: &amp;quot;Udemy Sans&amp;quot;, Vazirmatn, &amp;quot;SF Pro Text&amp;quot;, -apple-system, BlinkMacSystemFont, Roboto, &amp;quot;Segoe UI&amp;quot;, Helvetica, Arial, sans-serif, &amp;quot;Apple Color Emoji&amp;quot;, &amp;quot;Segoe UI Emoji&amp;quot;, &amp;quot;Segoe UI Symbol&amp;quot;; font-style: normal; font-variant-ligatures: normal; font-variant-caps: normal; letter-spacing: normal; text-align: start; text-indent: 0px; text-transform: none; word-spacing: 0px; -webkit-text-stroke-width: 0px; white-space: normal; background-color: oklch(1 0 0); text-decoration-thickness: initial; text-decoration-style: initial; text-decoration-color: initial;&quot;&gt;Time complexity:&lt;/strong&gt;&lt;span style=&quot;color: oklch(0.2974 0.0362 281.74); font-family: &amp;quot;Udemy Sans&amp;quot;, Vazirmatn, &amp;quot;SF Pro Text&amp;quot;, -apple-system, BlinkMacSystemFont, Roboto, &amp;quot;Segoe UI&amp;quot;, Helvetica, Arial, sans-serif, &amp;quot;Apple Color Emoji&amp;quot;, &amp;quot;Segoe UI Emoji&amp;quot;, &amp;quot;Segoe UI Symbol&amp;quot;; font-style: normal; font-variant-ligatures: normal; font-variant-caps: normal; font-weight: 400; letter-spacing: normal; text-align: start; text-indent: 0px; text-transform: none; word-spacing: 0px; -webkit-text-stroke-width: 0px; white-space: normal; background-color: oklch(1 0 0); text-decoration-thickness: initial; text-decoration-style: initial; text-decoration-color: initial; display: inline !important; float: none;&quot;&gt;&lt;span&gt;&amp;nbsp;&lt;/span&gt;O(nÂ²)&lt;/span&gt;&lt;/font&gt;&lt;/div&gt;&lt;div&gt;&lt;font&gt;&lt;span style=&quot;color: oklch(0.2974 0.0362 281.74); font-family: &amp;quot;Udemy Sans&amp;quot;, Vazirmatn, &amp;quot;SF Pro Text&amp;quot;, -apple-system, BlinkMacSystemFont, Roboto, &amp;quot;Segoe UI&amp;quot;, Helvetica, Arial, sans-serif, &amp;quot;Apple Color Emoji&amp;quot;, &amp;quot;Segoe UI Emoji&amp;quot;, &amp;quot;Segoe UI Symbol&amp;quot;; font-style: normal; font-variant-ligatures: normal; font-variant-caps: normal; font-weight: 400; letter-spacing: normal; text-align: start; text-indent: 0px; text-transform: none; word-spacing: 0px; -webkit-text-stroke-width: 0px; white-space: normal; background-color: oklch(1 0 0); text-decoration-thickness: initial; text-decoration-style: initial; text-decoration-color: initial; display: inline !important; float: none;&quot;&gt;&lt;br&gt;&lt;/span&gt;&lt;/font&gt;&lt;/div&gt;&lt;div&gt;&lt;b&gt;Explanation&lt;/b&gt;: The outer loop is repeated n times, the inner loop is repeated n-(i+1) times, and what&#39;s inside the inner loop costs O(1).&lt;/div&gt;&lt;div&gt;&lt;br&gt;&lt;/div&gt;&lt;div&gt;&lt;br&gt;&lt;/div&gt;" style="text;html=1;align=left;verticalAlign=middle;whiteSpace=wrap;rounded=0;fontSize=14;" vertex="1" parent="1">
          <mxGeometry x="40" y="130" width="800" height="550" as="geometry" />
        </mxCell>
      </root>
    </mxGraphModel>
  </diagram>
</mxfile>
